<svg width="21" height="20" viewBox="0 0 21 20" fill="none" xmlns="http://www.w3.org/2000/svg">
<path d="M1.52178 0.553437C0.783623 1.29135 0.783623 2.48775 1.52178 3.22567L8.2983 10L1.52177 16.7743C0.78362 17.5123 0.783622 18.7086 1.52178 19.4466C2.25993 20.1845 3.45672 20.1845 4.19487 19.4466L10.9714 12.6722L17.7479 19.4465C18.4861 20.1845 19.6828 20.1845 20.421 19.4465C21.1591 18.7086 21.1591 17.5122 20.421 16.7743L13.6445 10L20.421 3.2257C21.1591 2.48778 21.1591 1.29138 20.421 0.553464C19.6828 -0.184451 18.486 -0.184451 17.7479 0.553466L10.9714 7.32777L4.19487 0.553437C3.45672 -0.18448 2.25993 -0.18448 1.52178 0.553437Z" fill="#754E29"/>
</svg>
